<svg width="1600" height="520" viewBox="0 0 1600 520" xmlns="http://www.w3.org/2000/svg" role="img" aria-label="SH드림타워 건물 모델링 스타일 이미지">
  <defs>
    <linearGradient id="sky" x1="0" y1="0" x2="0" y2="1">
      <stop offset="0" stop-color="#dff4ff"/>
      <stop offset="1" stop-color="#eef6df"/>
    </linearGradient>
    <linearGradient id="tower" x1="0" y1="0" x2="1" y2="1">
      <stop offset="0" stop-color="#4c6077"/>
      <stop offset="1" stop-color="#243447"/>
    </linearGradient>
    <linearGradient id="glass" x1="0" y1="0" x2="1" y2="0">
      <stop offset="0" stop-color="#8dc8ff" stop-opacity="0.75"/>
      <stop offset="1" stop-color="#4e87c2" stop-opacity="0.55"/>
    </linearGradient>
  </defs>

  <rect width="1600" height="520" fill="url(#sky)"/>
  <rect x="0" y="430" width="1600" height="90" fill="#cad6b7"/>
  <ellipse cx="980" cy="452" rx="280" ry="26" fill="#9eb08e" opacity="0.5"/>

  <polygon points="540,420 700,90 1020,90 1180,420" fill="url(#tower)"/>
  <polygon points="700,90 1020,90 960,60 760,60" fill="#596f87"/>

  <rect x="640" y="130" width="440" height="260" fill="url(#glass)" opacity="0.8"/>

  <g stroke="#d9ecff" stroke-opacity="0.45">
    <line x1="680" y1="130" x2="680" y2="390"/>
    <line x1="720" y1="130" x2="720" y2="390"/>
    <line x1="760" y1="130" x2="760" y2="390"/>
    <line x1="800" y1="130" x2="800" y2="390"/>
    <line x1="840" y1="130" x2="840" y2="390"/>
    <line x1="880" y1="130" x2="880" y2="390"/>
    <line x1="920" y1="130" x2="920" y2="390"/>
    <line x1="960" y1="130" x2="960" y2="390"/>
    <line x1="1000" y1="130" x2="1000" y2="390"/>
    <line x1="1040" y1="130" x2="1040" y2="390"/>
    <line x1="640" y1="165" x2="1080" y2="165"/>
    <line x1="640" y1="200" x2="1080" y2="200"/>
    <line x1="640" y1="235" x2="1080" y2="235"/>
    <line x1="640" y1="270" x2="1080" y2="270"/>
    <line x1="640" y1="305" x2="1080" y2="305"/>
    <line x1="640" y1="340" x2="1080" y2="340"/>
  </g>

  <rect x="780" y="360" width="160" height="60" fill="#131a24"/>
  <rect x="812" y="372" width="44" height="48" fill="#6db1ff" opacity="0.35"/>
  <rect x="864" y="372" width="44" height="48" fill="#6db1ff" opacity="0.35"/>

  <text x="800" y="455" font-family="Noto Sans KR, sans-serif" font-size="40" font-weight="700" fill="#26374e">SH DREAMTOWER MODEL VIEW</text>
</svg>
